<svg data-logo="logo" xmlns="http://www.w3.org/2000/svg" viewBox="0 0 166 43">
        <g style="opacity: 1;" id="logogram" transform="translate(0, 1) rotate(0)"><path d="M37.8473 40.43C44.2801 40.2989 49.4526 35.0373 49.4526 28.5688C49.4526 25.4231 48.2038 22.4061 45.9809 20.1818L26.2421 0.429993V12.707C26.2421 14.7603 27.0573 16.7295 28.5082 18.1814L33.1321 22.8084L33.1448 22.8207L40.8979 30.5789C41.1497 30.8309 41.1497 31.2394 40.8979 31.4913C40.6461 31.7433 40.2379 31.7433 39.9861 31.4913L37.3136 28.8171H12.5917L9.91919 31.4913C9.6674 31.7433 9.25918 31.7433 9.00739 31.4913C8.75561 31.2394 8.75561 30.8309 9.00739 30.5789L16.7605 22.8207L16.7732 22.8084L21.3971 18.1814C22.848 16.7295 23.6631 14.7603 23.6631 12.707V0.429993L3.92439 20.1818C1.70146 22.4061 0.452637 25.4231 0.452637 28.5688C0.452637 35.0373 5.62516 40.2989 12.058 40.43H37.8473Z" fill="#FF0A0A"></path></g>
        <g style="opacity: 1;" id="logotype" transform="translate(56, 9)"><path fill="#ffffff" d="M18.29 25L13.77 5.50L13.77 25L8.63 25L8.63-0.06L16.33-0.06L20.88 19.89L25.25-0.06L33.02-0.06L33.02 25L27.88 25L27.88 5.50L23.43 25L18.29 25ZM51.57 16.98L51.57 16.98L39.11 16.98Q39.22 19.23 39.81 20.17L39.81 20.17Q40.83 21.71 43.00 21.71L43.00 21.71Q45.69 21.71 46.60 19.47L46.60 19.47L51.36 19.47Q50.56 22.20 48.23 23.79Q45.90 25.39 42.79 25.39L42.79 25.39Q38.55 25.39 36.28 22.55L36.28 22.55Q34.28 20.06 34.28 16.00L34.28 16.00Q34.28 11.07 36.87 8.38L36.87 8.38Q39.15 6.06 42.86 6.06L42.86 6.06Q45.69 6.06 47.83 7.46Q49.96 8.86 50.87 11.38L50.87 11.38Q51.61 13.34 51.61 16.11L51.61 16.11Q51.61 16.46 51.57 16.98ZM39.18 13.80L46.57 13.80Q46.22 9.74 42.82 9.74L42.82 9.74Q39.64 9.74 39.18 13.80L39.18 13.80ZM68.86 16.98L68.86 16.98L56.40 16.98Q56.51 19.23 57.10 20.17L57.10 20.17Q58.12 21.71 60.29 21.71L60.29 21.71Q62.98 21.71 63.89 19.47L63.89 19.47L68.65 19.47Q67.85 22.20 65.52 23.79Q63.19 25.39 60.08 25.39L60.08 25.39Q55.84 25.39 53.57 22.55L53.57 22.55Q51.57 20.06 51.57 16.00L51.57 16.00Q51.57 11.07 54.16 8.38L54.16 8.38Q56.44 6.06 60.15 6.06L60.15 6.06Q62.98 6.06 65.12 7.46Q67.25 8.86 68.16 11.38L68.16 11.38Q68.90 13.34 68.90 16.11L68.90 16.11Q68.90 16.46 68.86 16.98ZM56.47 13.80L63.86 13.80Q63.51 9.74 60.11 9.74L60.11 9.74Q56.93 9.74 56.47 13.80L56.47 13.80ZM75.55 6.45L78.80 6.45L78.80 9.63L75.55 9.63L75.55 19.96Q75.55 20.98 75.91 21.36Q76.28 21.75 77.26 21.75L77.26 21.75Q78.07 21.75 79.33 21.11L79.33 21.11Q79.43 21.04 79.50 21.01L79.50 21.01L80.06 24.30Q77.86 25.39 75.44 25.39L75.44 25.39Q70.72 25.39 70.72 21.04L70.72 21.04L70.72 9.63L68.34 9.63L68.34 6.45L70.72 6.45L70.72 3.37L75.55 0.60L75.55 6.45ZM97.59 25L95.95 19.96L86.57 19.96L84.89 25L79.64 25L88.53-0.06L94.23-0.06L102.92 25L97.59 25ZM88.01 15.65L94.55 15.65L91.30 5.85L88.01 15.65ZM103.89-0.06L109.04-0.06L109.04 25L103.89 25L103.89-0.06Z"></path></g>
        
      </svg>